<?xml version="1.0" encoding="utf-8"?>
<!-- Generator: Adobe Illustrator 18.0.0, SVG Export Plug-In . SVG Version: 6.00 Build 0)  -->
<!DOCTYPE svg PUBLIC "-//W3C//DTD SVG 1.1//EN" "http://www.w3.org/Graphics/SVG/1.1/DTD/svg11.dtd">
<svg version="1.1" id="Capa_1" xmlns="http://www.w3.org/2000/svg" xmlns:xlink="http://www.w3.org/1999/xlink" x="0px" y="0px"
	 viewBox="-92.2 -84.7 682.9 685.5" enable-background="new -92.2 -84.7 682.9 685.5" xml:space="preserve">
<g>
	<g>
		<path fill="#FFFFFF" d="M333.3,22.5c-6.8,0-12.6,5.8-12.6,12.6v34.4c0,6.8,5.8,12.6,12.6,12.6c6.8,0,12.6-5.8,12.6-12.6V35.1
			C345.9,28.4,340.1,22.5,333.3,22.5z"/>
	</g>
</g>
<circle fill="none" stroke="#FFFFFF" stroke-width="24.2708" stroke-miterlimit="10" cx="249.3" cy="258.8" r="330.2"/>
<g>
	<g>
		<path fill="#FFFFFF" d="M340.3,16.8c-6.8,0-12.6,5.8-12.6,12.6v34.4c0,6.8,5.8,12.6,12.6,12.6c6.8,0,12.6-5.8,12.6-12.6V29.4
			C352.9,22.6,347.1,16.8,340.3,16.8z"/>
	</g>
</g>
<g>
	<g>
		<path fill="#FFFFFF" d="M459.5,66.2c-4.8-4.8-12.6-4.8-17.4,0l-24.2,24.2c-4.8,4.8-4.8,12.6,0,17.4c4.8,4.8,12.6,4.8,17.4,0
			l24.2-24.2C464.3,78.8,464.3,71,459.5,66.2z"/>
	</g>
</g>
<g>
	<g>
		<path fill="#FFFFFF" d="M262.3,90.4L238,66.2c-4.8-4.8-12.6-4.8-17.4,0c-4.8,4.8-4.8,12.6,0,17.4l24.2,24.2
			c4.8,4.8,12.6,4.8,17.4,0C267.1,103,267.1,95.3,262.3,90.4z"/>
	</g>
</g>
<g>
	<g>
		<path fill="#FFFFFF" d="M496.8,173.3h-34.4c-6.8,0-12.6,5.8-12.6,12.6s5.8,12.6,12.6,12.6h34.4c6.8,0,12.6-5.8,12.6-12.6
			C508.9,179.1,503.6,173.3,496.8,173.3z"/>
	</g>
</g>
<g>
	<path fill="#FFFFFF" d="M122.9,238.2c-35.1,0-63.7,28.6-63.7,63.7s28.6,63.7,63.7,63.7c35.2,0,63.7-28.6,63.7-63.7
		S158,238.2,122.9,238.2z"/>
	<path fill="#D35E5E" d="M122.9,171.4c-71.2,0-129.1,57.9-129.1,129.1c0,8.1,0.7,16.3,2.3,24.2c0.1,0.5,0.3,1.9,0.9,4.3
		c2,8.7,4.9,17.3,8.6,25.5c13.9,32.7,44.5,83.1,111.6,136.9c1.7,1.4,3.7,2,5.7,2s4.1-0.7,5.7-2c67.1-53.9,97.7-104.2,111.6-136.9
		c3.8-8.2,6.7-16.7,8.6-25.5c0.5-2.4,0.8-3.8,0.9-4.3c1.5-8,2.3-16.1,2.3-24.2C252,229.3,194.1,171.4,122.9,171.4z M122.9,383.9
		c-45.2,0-82-36.8-82-82s36.8-82,82-82c45.2,0,82,36.8,82,82S168.1,383.9,122.9,383.9z"/>
</g>
<path fill="#FFFFFF" d="M459,287.2l-23.7-23.7c-4.8-4.8-12.6-4.8-17.4,0c-1.9,1.9-2.9,3.9-3.4,6.3c-0.5-11.1-3.4-21.3-7.3-31
	c4.8-6.3,9.2-13.6,12.1-20.8c4.4-10.2,6.3-21.3,6.3-32.5c0-23.7-9.7-45.1-25.2-60.1c-15.5-15-36.8-24.7-60.1-24.7
	c-16,0-31,4.4-44.1,12.1c-9.2,5.8-17.4,13.1-24.2,21.8c-19.4-13.1-42.6-20.8-67.4-20.8c-29.6,0-56.7,10.7-77.5,28.6
	c-3.3,2.8-6.3,5.8-9.3,9c1.7-0.1,3.4-0.1,5.1-0.1c10.3,0,20.4,1,30.2,2.9c14.7-9.2,32.1-14.7,50.5-14.7c19.9,0,38.3,6.3,53.8,17
	c11.6,8.2,21.8,18.9,28.6,32c-1.9,1-3.9,1.5-5.8,2.4c-12.1,5.3-22.8,13.6-32,23.3c-0.1,0.2-0.3,0.4-0.4,0.6
	c4.5,6.2,8.4,12.8,11.8,19.7c2.7-0.4,5.1-1.7,7-3.8c6.8-7.3,14.5-13.1,23.3-17.4c8.7-3.9,18.4-6.3,28.6-6.3
	c19.4,0,36.3,7.8,48.9,20.4c12.6,12.6,20.4,30,20.4,48.9c1.5,19.4-6.3,36.3-18.4,48.9c-12.6,12.6-30,20.4-48.9,20.4h-54.9
	c-1.5,4.1-3.2,8-5.1,12c-1.8,4-3.8,8.3-6.1,12.8h65c26.2,0,49.4-10.7,66.9-27.6c17-17,27.6-40.7,27.6-66.9v-0.5
	c0.5,1.9,1.5,3.9,3.4,5.3l24.2,24.2c4.8,4.8,12.6,4.8,17.4,0C463.9,299.8,463.9,292,459,287.2z M396,208.7c-1,2.4-1.9,4.8-3.4,6.8
	c-1.9-2.4-3.9-4.4-5.8-6.3c-17-17-40.7-27.6-66.9-27.6c-2.4,0-5.3,0-7.8,0.5c-5.3-11.6-12.6-22.3-21.3-31
	c4.8-6.8,11.1-12.1,17.9-16.5c9.2-5.8,19.9-8.7,31-8.7c16.5,0,32,6.8,42.6,17.4c11.1,11.1,17.4,26.2,17.4,42.6
	C400.4,194.1,398.9,201.9,396,208.7z"/>
<path fill="#FFFFFF" d="M349.5,395.3c-9.7-9.7-22.8-15.5-37.3-15.5c-0.5,0-1,0-1,0h-62c-4.4,7.9-9.6,16.3-15.7,25.2h77.6
	c0.5,0,0.5,0,1,0c7.8,0,14.5,2.9,19.4,8.2c4.8,4.8,8.2,12.1,8.2,19.4c0,7.8-2.9,14.5-8.2,19.4c-4.8,4.8-12.1,8.2-19.4,8.2
	c-7.8,0-14.5-2.9-19.4-8.2c-4.8-4.8-8.2-12.1-8.2-19.4c0-6.8-5.8-12.6-12.6-12.6s-12.6,5.8-12.6,12.6c0,14.5,5.8,27.6,15.5,37.3
	c9.7,9.7,22.8,15.5,37.3,15.5c14.5,0,27.6-5.8,37.3-15.5c9.7-9.7,15.5-22.8,15.5-37.3C365,418,359.2,405,349.5,395.3z"/>
</svg>
